<svg width="358" height="59" viewBox="0 0 358 59" fill="none" xmlns="http://www.w3.org/2000/svg">
<path d="M0.117031 20.98V14.68H7.19703V20.98H0.117031ZM0.717031 58.3V45.1L1.67703 25.48H5.63703L6.59703 45.1V58.3H0.717031ZM14.3994 44.38V39.34C15.9194 40.06 17.5194 40.64 19.1994 41.08C20.8794 41.52 22.3794 41.74 23.6994 41.74C28.7794 41.74 31.3194 39.18 31.3194 34.06V7.48L22.6194 5.68V2.38H36.8994V34.36C36.8994 38.2 35.7794 41.22 33.5394 43.42C31.3394 45.62 28.2394 46.72 24.2394 46.72C22.4394 46.72 20.6394 46.5 18.8394 46.06C17.0394 45.62 15.5594 45.06 14.3994 44.38ZM45.3875 34.06V14.68H50.7875V33.88C50.7875 36.56 51.3675 38.62 52.5275 40.06C53.6875 41.5 55.3875 42.22 57.6275 42.22C59.5075 42.22 61.2675 41.58 62.9075 40.3C64.5875 38.98 65.8475 37.24 66.6875 35.08V14.68H72.0875V46H68.4275L67.4675 40.66C66.1875 42.58 64.5675 44.06 62.6075 45.1C60.6875 46.14 58.5875 46.66 56.3075 46.66C52.8275 46.66 50.1275 45.58 48.2075 43.42C46.3275 41.26 45.3875 38.14 45.3875 34.06ZM104.718 44.44C103.598 45.12 102.098 45.66 100.218 46.06C98.3781 46.46 96.3581 46.66 94.1581 46.66C89.1981 46.66 85.4381 45.26 82.8781 42.46C80.3581 39.62 79.0981 35.48 79.0981 30.04C79.0981 24.8 80.2981 20.82 82.6981 18.1C85.1381 15.38 88.6181 14.02 93.1381 14.02C101.858 14.02 106.218 18.84 106.218 28.48V31.96H84.5581C84.7981 35.48 85.7381 38.06 87.3781 39.7C89.0181 41.3 91.4581 42.1 94.6981 42.1C96.4981 42.1 98.1981 41.92 99.7981 41.56C101.398 41.2 103.038 40.64 104.718 39.88V44.44ZM93.1381 18.46C90.4981 18.46 88.4381 19.26 86.9581 20.86C85.5181 22.42 84.7181 24.7 84.5581 27.7H100.998C100.998 24.42 100.378 22.06 99.1381 20.62C97.9381 19.18 95.9381 18.46 93.1381 18.46ZM112.41 42.22L111.33 39.1L116.07 31.78C114.15 29.9 113.19 27.5 113.19 24.58C113.19 21.26 114.33 18.68 116.61 16.84C118.93 14.96 122.13 14.02 126.21 14.02C128.29 14.02 130.17 14.32 131.85 14.92L141.93 14.8V17.5L137.73 18.82C139.29 20.34 140.07 22.32 140.07 24.76C140.07 28.04 138.87 30.6 136.47 32.44C134.11 34.28 130.83 35.2 126.63 35.2C124.03 35.2 121.75 34.82 119.79 34.06L117.09 38.26L132.39 40.36C135.71 40.8 138.13 41.72 139.65 43.12C141.21 44.52 141.99 46.44 141.99 48.88C141.99 51.92 140.61 54.32 137.85 56.08C135.13 57.84 131.39 58.72 126.63 58.72C121.83 58.72 118.13 57.94 115.53 56.38C112.97 54.86 111.69 52.66 111.69 49.78C111.69 47.06 112.95 44.68 115.47 42.64L112.41 42.22ZM118.35 24.58C118.35 28.86 121.11 31 126.63 31C132.15 31 134.91 28.86 134.91 24.58C134.91 20.3 132.15 18.16 126.63 18.16C121.11 18.16 118.35 20.3 118.35 24.58ZM116.97 48.82C116.97 52.58 120.19 54.46 126.63 54.46C129.71 54.46 132.13 53.96 133.89 52.96C135.69 52 136.59 50.7 136.59 49.06C136.59 47.82 136.21 46.88 135.45 46.24C134.73 45.6 133.43 45.14 131.55 44.86L119.67 43.24C117.87 44.8 116.97 46.66 116.97 48.82ZM167.494 46L166.594 40.96C164.034 44.76 160.554 46.66 156.154 46.66C152.994 46.66 150.454 45.78 148.534 44.02C146.654 42.22 145.714 39.84 145.714 36.88C145.714 33.6 146.834 31.06 149.074 29.26C151.354 27.42 154.514 26.5 158.554 26.5H165.754V24.52C165.754 22.28 165.254 20.7 164.254 19.78C163.294 18.86 161.634 18.4 159.274 18.4C157.754 18.4 156.134 18.58 154.414 18.94C152.694 19.26 150.754 19.8 148.594 20.56V16.18C150.114 15.5 151.854 14.98 153.814 14.62C155.774 14.22 157.614 14.02 159.334 14.02C167.214 14.02 171.154 17.52 171.154 24.52V46H167.494ZM156.814 42.34C158.654 42.34 160.374 41.82 161.974 40.78C163.574 39.7 164.854 38.24 165.814 36.4V30.46H159.094C156.374 30.46 154.354 30.96 153.034 31.96C151.754 32.92 151.114 34.42 151.114 36.46C151.114 38.26 151.614 39.7 152.614 40.78C153.654 41.82 155.054 42.34 156.814 42.34ZM214.134 46L213.234 40.96C210.674 44.76 207.194 46.66 202.794 46.66C199.634 46.66 197.094 45.78 195.174 44.02C193.294 42.22 192.354 39.84 192.354 36.88C192.354 33.6 193.474 31.06 195.714 29.26C197.994 27.42 201.154 26.5 205.194 26.5H212.394V24.52C212.394 22.28 211.894 20.7 210.894 19.78C209.934 18.86 208.274 18.4 205.914 18.4C204.394 18.4 202.774 18.58 201.054 18.94C199.334 19.26 197.394 19.8 195.234 20.56V16.18C196.754 15.5 198.494 14.98 200.454 14.62C202.414 14.22 204.254 14.02 205.974 14.02C213.854 14.02 217.794 17.52 217.794 24.52V46H214.134ZM203.454 42.34C205.294 42.34 207.014 41.82 208.614 40.78C210.214 39.7 211.494 38.24 212.454 36.4V30.46H205.734C203.014 30.46 200.994 30.96 199.674 31.96C198.394 32.92 197.754 34.42 197.754 36.46C197.754 38.26 198.254 39.7 199.254 40.78C200.294 41.82 201.694 42.34 203.454 42.34ZM226.508 46V0.939997H231.908V19.24C233.148 17.6 234.648 16.32 236.408 15.4C238.208 14.48 240.228 14.02 242.468 14.02C246.068 14.02 248.828 15.1 250.748 17.26C252.668 19.42 253.628 22.54 253.628 26.62V46H248.228V26.8C248.228 21.36 245.868 18.64 241.148 18.64C239.148 18.64 237.308 19.26 235.628 20.5C233.988 21.7 232.748 23.34 231.908 25.42V46H226.508ZM275.209 46.66C270.489 46.66 266.829 45.22 264.229 42.34C261.629 39.42 260.329 35.42 260.329 30.34C260.329 25.22 261.629 21.22 264.229 18.34C266.829 15.46 270.489 14.02 275.209 14.02C279.969 14.02 283.649 15.46 286.249 18.34C288.849 21.22 290.149 25.22 290.149 30.34C290.149 35.42 288.849 39.42 286.249 42.34C283.649 45.22 279.969 46.66 275.209 46.66ZM275.209 42.22C278.289 42.22 280.629 41.22 282.229 39.22C283.829 37.18 284.629 34.22 284.629 30.34C284.629 26.46 283.829 23.52 282.229 21.52C280.629 19.48 278.289 18.46 275.209 18.46C272.169 18.46 269.849 19.48 268.249 21.52C266.649 23.52 265.849 26.46 265.849 30.34C265.849 34.22 266.649 37.18 268.249 39.22C269.849 41.22 272.169 42.22 275.209 42.22ZM297.172 46V14.68H300.832L301.912 20.56C303.952 16.6 306.872 14.62 310.672 14.62C311.472 14.62 312.172 14.68 312.772 14.8V19.54H311.392C309.112 19.54 307.212 20.18 305.692 21.46C304.172 22.74 303.132 24.6 302.572 27.04V46H297.172ZM337.767 46L336.867 40.96C334.307 44.76 330.827 46.66 326.427 46.66C323.267 46.66 320.727 45.78 318.807 44.02C316.927 42.22 315.987 39.84 315.987 36.88C315.987 33.6 317.107 31.06 319.347 29.26C321.627 27.42 324.787 26.5 328.827 26.5H336.027V24.52C336.027 22.28 335.527 20.7 334.527 19.78C333.567 18.86 331.907 18.4 329.547 18.4C328.027 18.4 326.407 18.58 324.687 18.94C322.967 19.26 321.027 19.8 318.867 20.56V16.18C320.387 15.5 322.127 14.98 324.087 14.62C326.047 14.22 327.887 14.02 329.607 14.02C337.487 14.02 341.427 17.52 341.427 24.52V46H337.767ZM327.087 42.34C328.927 42.34 330.647 41.82 332.247 40.78C333.847 39.7 335.127 38.24 336.087 36.4V30.46H329.367C326.647 30.46 324.627 30.96 323.307 31.96C322.027 32.92 321.387 34.42 321.387 36.46C321.387 38.26 321.887 39.7 322.887 40.78C323.927 41.82 325.327 42.34 327.087 42.34ZM352.361 35.2L351.401 15.58V2.38H357.281V15.58L356.321 35.2H352.361ZM350.801 46V39.7H357.881V46H350.801Z" fill="white"/>
</svg>
