<svg width="370" height="48" viewBox="0 0 370 48" fill="none" xmlns="http://www.w3.org/2000/svg">
<path d="M336.974 39.6179C329.925 39.6179 323.961 34.8857 322.139 28.435H361.305L366.701 20.0551H322.128C323.95 13.5844 329.906 8.84561 336.974 8.84561H363.854L369.254 0.467892H336.344C323.196 0.467892 312.524 11.1052 312.524 24.2328C312.524 37.3604 323.196 47.9911 336.344 47.9911H364.617L370 39.6179H336.974ZM224.895 47.9911C211.744 47.9911 201.07 37.356 201.07 24.2328C201.07 11.1097 211.742 0.47011 224.895 0.47011H257.807L252.413 8.84782H225.516C216.992 8.84782 210.083 15.7354 210.083 24.2351C210.083 32.7347 216.992 39.6201 225.516 39.6201H258.549L253.165 47.9933H224.892L224.895 47.9911ZM50.8989 39.6179C59.4206 39.6179 66.3216 32.7303 66.3216 24.2328C66.3216 15.7354 59.4185 8.84561 50.8989 8.84561H24.4354C15.918 8.84561 9.01268 15.7332 9.01268 24.2328C9.01268 32.7325 15.918 39.6179 24.4354 39.6179H50.8989ZM23.8244 47.9911C10.6699 47.9911 0 37.356 0 24.2328C0 11.1097 10.6699 0.47011 23.8244 0.47011H51.5185C64.673 0.47011 75.3386 11.1075 75.3386 24.2351C75.3386 37.3627 64.673 48 51.5185 48L23.8244 47.9933V47.9911ZM120.31 32.6039C129.202 32.6039 136.414 25.4081 136.414 16.5359C136.414 7.66368 129.202 0.47011 120.31 0.47011H80.2137V47.9911H89.37V8.84561H119.677C123.946 8.84561 127.387 12.2827 127.387 16.5359C127.387 20.7891 123.946 24.2328 119.677 24.2328L93.857 24.2218L121.202 47.9889H134.515L116.114 32.5928L120.312 32.5995L120.31 32.6039ZM271.89 39.6112V0.47011H262.723V43.4386C262.723 44.6294 263.207 45.7648 264.056 46.6141C264.952 47.4988 266.14 47.9933 267.413 47.9933H309.194L314.584 39.6134H271.89V39.6112ZM159.718 31.2246H184.164L171.249 10.4644L147.543 47.9911L136.736 47.9978L165.6 2.93375C166.825 1.1021 168.938 0 171.239 0C173.539 0 175.593 1.07105 176.821 2.85614L205.784 48L194.971 47.9933L189.901 39.6068H165.125L159.722 31.2268L159.718 31.2246Z" fill="#C74634"/>
</svg>
