<svg width="30" height="42" viewBox="0 0 30 42" fill="none" xmlns="http://www.w3.org/2000/svg">
<path d="M21.5135 8.67568C21.5135 12.3626 18.5247 15.3514 14.8378 15.3514C11.151 15.3514 8.16217 12.3626 8.16217 8.67568C8.16217 4.98879 11.151 2 14.8378 2C18.5247 2 21.5135 4.98879 21.5135 8.67568Z" stroke="black" stroke-opacity="0.4" stroke-width="3"/>
<path d="M27.6757 31.2707C27.6757 33.4801 26.4246 35.6257 24.1094 37.2793C21.7974 38.9309 18.5242 40.0005 14.8378 40.0005C11.1514 40.0005 7.87831 38.9309 5.56621 37.2793C3.25114 35.6257 2 33.4801 2 31.2707C2 29.0614 3.25114 26.9157 5.56621 25.2622C7.87831 23.6106 11.1514 22.541 14.8378 22.541C18.5242 22.541 21.7974 23.6106 24.1094 25.2622C26.4246 26.9157 27.6757 29.0614 27.6757 31.2707Z" stroke="black" stroke-opacity="0.4" stroke-width="3"/>
</svg>
