<svg width="356" height="78" viewBox="0 0 356 78" fill="none" xmlns="http://www.w3.org/2000/svg">
<path d="M0.909688 61V2.84H20.6697C34.163 2.84 40.9097 8.54666 40.9097 19.96C40.9097 28.8667 36.3764 34.36 27.3097 36.44L43.4697 61H34.9897L20.2697 37.96L8.26969 36.04V61H0.909688ZM8.26969 31.08H17.1497C23.123 31.08 27.3364 30.2533 29.7897 28.6C32.243 26.8933 33.4697 24.0133 33.4697 19.96C33.4697 17.1867 32.963 15 31.9497 13.4C30.9364 11.7467 29.2297 10.5733 26.8297 9.88C24.483 9.13333 21.2564 8.76 17.1497 8.76H8.26969V31.08ZM80.9341 58.92C79.4407 59.8267 77.4407 60.5467 74.9341 61.08C72.4807 61.6133 69.7874 61.88 66.8541 61.88C60.2407 61.88 55.2274 60.0133 51.8141 56.28C48.4541 52.4933 46.7741 46.9733 46.7741 39.72C46.7741 32.7333 48.3741 27.4267 51.5741 23.8C54.8274 20.1733 59.4674 18.36 65.4941 18.36C77.1207 18.36 82.9341 24.7867 82.9341 37.64V42.28H54.0541C54.3741 46.9733 55.6274 50.4133 57.8141 52.6C60.0007 54.7333 63.2541 55.8 67.5741 55.8C69.9741 55.8 72.2407 55.56 74.3741 55.08C76.5074 54.6 78.6941 53.8533 80.9341 52.84V58.92ZM65.4941 24.28C61.9741 24.28 59.2274 25.3467 57.2541 27.48C55.3341 29.56 54.2674 32.6 54.0541 36.6H75.9741C75.9741 32.2267 75.1474 29.08 73.4941 27.16C71.8941 25.24 69.2274 24.28 65.4941 24.28ZM91.1903 55.96L89.7503 51.8L96.0703 42.04C93.5103 39.5333 92.2303 36.3333 92.2303 32.44C92.2303 28.0133 93.7503 24.5733 96.7903 22.12C99.8836 19.6133 104.15 18.36 109.59 18.36C112.364 18.36 114.87 18.76 117.11 19.56L130.55 19.4V23L124.95 24.76C127.03 26.7867 128.07 29.4267 128.07 32.68C128.07 37.0533 126.47 40.4667 123.27 42.92C120.124 45.3733 115.75 46.6 110.15 46.6C106.684 46.6 103.644 46.0933 101.03 45.08L97.4303 50.68L117.83 53.48C122.257 54.0667 125.484 55.2933 127.51 57.16C129.59 59.0267 130.63 61.5867 130.63 64.84C130.63 68.8933 128.79 72.0933 125.11 74.44C121.484 76.7867 116.497 77.96 110.15 77.96C103.75 77.96 98.817 76.92 95.3503 74.84C91.937 72.8133 90.2303 69.88 90.2303 66.04C90.2303 62.4133 91.9103 59.24 95.2703 56.52L91.1903 55.96ZM99.1103 32.44C99.1103 38.1467 102.79 41 110.15 41C117.51 41 121.19 38.1467 121.19 32.44C121.19 26.7333 117.51 23.88 110.15 23.88C102.79 23.88 99.1103 26.7333 99.1103 32.44ZM97.2703 64.76C97.2703 69.7733 101.564 72.28 110.15 72.28C114.257 72.28 117.484 71.6133 119.83 70.28C122.23 69 123.43 67.2667 123.43 65.08C123.43 63.4267 122.924 62.1733 121.91 61.32C120.95 60.4667 119.217 59.8533 116.71 59.48L100.87 57.32C98.4703 59.4 97.2703 61.88 97.2703 64.76ZM140.757 61V24.84L136.597 22.2V19.24H147.957V61H140.757ZM138.597 13.4L147.157 0.919996H155.157L144.677 13.4H138.597ZM157.721 58.92V52.84C160.228 53.9067 162.494 54.68 164.521 55.16C166.601 55.64 168.788 55.88 171.081 55.88C178.014 55.88 181.481 53.8 181.481 49.64C181.481 47.9867 180.974 46.7067 179.961 45.8C178.948 44.84 177.161 44.0133 174.601 43.32L168.041 41.56C164.201 40.4933 161.401 39.0533 159.641 37.24C157.881 35.3733 157.001 33 157.001 30.12C157.001 26.4933 158.414 23.64 161.241 21.56C164.121 19.4267 167.988 18.36 172.841 18.36C175.508 18.36 177.934 18.5733 180.121 19C182.308 19.4267 184.201 20.0133 185.801 20.76V26.84C181.694 25.1867 177.534 24.36 173.321 24.36C167.241 24.36 164.201 26.12 164.201 29.64C164.201 31.1333 164.654 32.3333 165.561 33.24C166.521 34.0933 168.174 34.84 170.521 35.48L177.161 37.24C181.214 38.3067 184.148 39.8 185.961 41.72C187.774 43.5867 188.681 46.12 188.681 49.32C188.681 53.2133 187.161 56.28 184.121 58.52C181.081 60.76 176.868 61.88 171.481 61.88C168.921 61.88 166.414 61.6133 163.961 61.08C161.508 60.5467 159.428 59.8267 157.721 58.92ZM199.368 48.28V25.16H192.168V21.48L199.368 19.08L202.248 7.72H206.568V19.24H215.608V25.16H206.568V48.2C206.568 52.7867 208.541 55.08 212.488 55.08C213.128 55.08 213.741 55.0533 214.328 55C214.968 54.8933 215.554 54.8133 216.088 54.76V61C215.341 61.16 214.568 61.2667 213.768 61.32C213.021 61.3733 212.221 61.4 211.368 61.4C207.261 61.4 204.221 60.3333 202.248 58.2C200.328 56.0667 199.368 52.76 199.368 48.28ZM225.039 61V19.24H229.919L231.359 27.08C234.079 21.8 237.972 19.16 243.039 19.16C244.106 19.16 245.039 19.24 245.839 19.4V25.72H243.999C240.959 25.72 238.426 26.5733 236.399 28.28C234.372 29.9867 232.986 32.4667 232.239 35.72V61H225.039ZM279.166 61L277.966 54.28C274.553 59.3467 269.913 61.88 264.046 61.88C259.833 61.88 256.446 60.7067 253.886 58.36C251.379 55.96 250.126 52.7867 250.126 48.84C250.126 44.4667 251.619 41.08 254.606 38.68C257.646 36.2267 261.859 35 267.246 35H276.846V32.36C276.846 29.3733 276.179 27.2667 274.846 26.04C273.566 24.8133 271.353 24.2 268.206 24.2C266.179 24.2 264.019 24.44 261.726 24.92C259.433 25.3467 256.846 26.0667 253.966 27.08V21.24C255.993 20.3333 258.313 19.64 260.926 19.16C263.539 18.6267 265.993 18.36 268.286 18.36C278.793 18.36 284.046 23.0267 284.046 32.36V61H279.166ZM264.926 56.12C267.379 56.12 269.673 55.4267 271.806 54.04C273.939 52.6 275.646 50.6533 276.926 48.2V40.28H267.966C264.339 40.28 261.646 40.9467 259.886 42.28C258.179 43.56 257.326 45.56 257.326 48.28C257.326 50.68 257.993 52.6 259.326 54.04C260.713 55.4267 262.579 56.12 264.926 56.12ZM297.024 48.28V25.16H289.824V21.48L297.024 19.08L299.904 7.72H304.224V19.24H313.264V25.16H304.224V48.2C304.224 52.7867 306.197 55.08 310.144 55.08C310.784 55.08 311.397 55.0533 311.984 55C312.624 54.8933 313.211 54.8133 313.744 54.76V61C312.997 61.16 312.224 61.2667 311.424 61.32C310.677 61.3733 309.877 61.4 309.024 61.4C304.917 61.4 301.877 60.3333 299.904 58.2C297.984 56.0667 297.024 52.76 297.024 48.28ZM353.434 58.92C351.941 59.8267 349.941 60.5467 347.434 61.08C344.981 61.6133 342.287 61.88 339.354 61.88C332.741 61.88 327.727 60.0133 324.314 56.28C320.954 52.4933 319.274 46.9733 319.274 39.72C319.274 32.7333 320.874 27.4267 324.074 23.8C327.327 20.1733 331.967 18.36 337.994 18.36C349.621 18.36 355.434 24.7867 355.434 37.64V42.28H326.554C326.874 46.9733 328.127 50.4133 330.314 52.6C332.501 54.7333 335.754 55.8 340.074 55.8C342.474 55.8 344.741 55.56 346.874 55.08C349.007 54.6 351.194 53.8533 353.434 52.84V58.92ZM337.994 24.28C334.474 24.28 331.727 25.3467 329.754 27.48C327.834 29.56 326.767 32.6 326.554 36.6H348.474C348.474 32.2267 347.647 29.08 345.994 27.16C344.394 25.24 341.727 24.28 337.994 24.28Z" fill="#5B6B6B"/>
</svg>
